<?xml version="1.0" standalone="no"?>
<!DOCTYPE svg PUBLIC "-//W3C//DTD SVG 20010904//EN"
 "http://www.w3.org/TR/2001/REC-SVG-20010904/DTD/svg10.dtd">
<svg version="1.0" xmlns="http://www.w3.org/2000/svg"
 width="500.000000pt" height="500.000000pt" viewBox="0 0 500.000000 500.000000"
 preserveAspectRatio="xMidYMid meet">

<g transform="translate(0.000000,500.000000) scale(0.100000,-0.100000)"
fill="#000000" stroke="none">
<path d="M1990 3145 l-215 -215 215 -215 215 -215 292 292 293 292 35 -34 35
-34 -327 -328 -328 -328 -182 182 -182 182 20 22 c18 19 18 22 4 34 -14 12
-21 8 -53 -23 l-37 -37 210 -210 c115 -116 214 -210 220 -210 5 -1 96 88 202
197 l192 198 98 -98 97 -98 128 128 c70 70 128 133 128 138 0 6 -5 16 -12 23
-10 10 -38 -13 -130 -105 l-118 -118 -77 78 -78 77 130 130 130 130 130 -130
130 -130 -180 -180 -180 -180 -117 117 c-112 112 -119 117 -135 100 -17 -16
-11 -24 115 -150 l132 -132 215 215 215 215 -215 215 -215 215 -293 -293 -293
-292 -34 35 -34 36 327 327 327 327 182 -182 c181 -181 182 -182 163 -203 -18
-19 -18 -22 -2 -38 16 -15 19 -14 54 21 l38 37 -215 215 -215 215 -195 -195
c-107 -107 -200 -195 -205 -195 -5 0 -50 40 -100 90 l-90 90 -133 -133 c-119
-119 -131 -135 -117 -147 14 -12 30 0 128 98 62 62 117 112 122 112 6 0 44
-34 85 -75 l75 -75 -133 -133 -132 -132 -131 131 -130 131 183 181 183 182
116 -116 c110 -110 116 -114 132 -96 16 17 10 25 -116 150 l-132 132 -215
-215z"/>
<path d="M1170 2130 c-29 -29 -25 -44 20 -80 51 -41 51 -54 1 -46 -46 7 -65
-9 -36 -31 20 -14 73 -17 91 -5 6 4 16 17 22 28 9 18 8 27 -8 47 -12 14 -29
29 -40 32 -11 4 -20 13 -20 22 0 12 7 14 29 10 35 -7 51 17 21 33 -29 16 -58
12 -80 -10z"/>
<path d="M1373 2138 c-5 -7 -22 -44 -38 -83 -15 -38 -29 -76 -32 -82 -9 -22
35 -15 47 7 7 14 21 20 45 20 25 0 35 -5 40 -20 6 -19 45 -29 45 -12 0 5 -15
46 -34 93 -33 82 -53 103 -73 77z m33 -106 c-3 -2 -12 -2 -21 2 -13 5 -14 10
-4 28 l12 22 9 -23 c5 -13 6 -26 4 -29z"/>
<path d="M1637 2143 c-4 -3 -7 -26 -7 -50 l0 -45 -54 46 c-29 25 -56 46 -60
46 -3 0 -6 -40 -6 -90 0 -89 0 -90 24 -90 22 0 25 5 28 45 l3 45 45 -40 c25
-21 48 -39 53 -40 4 0 7 41 7 90 0 68 -3 90 -13 90 -8 0 -17 -3 -20 -7z"/>
<path d="M1707 2143 c-14 -14 -6 -32 16 -35 20 -3 22 -9 25 -75 3 -65 5 -73
22 -73 18 0 20 7 20 75 0 68 2 75 20 75 13 0 20 7 20 20 0 18 -7 20 -58 20
-32 0 -62 -3 -65 -7z"/>
<path d="M1860 2055 c0 -88 1 -95 20 -95 19 0 20 7 20 95 0 88 -1 95 -20 95
-19 0 -20 -7 -20 -95z"/>
<path d="M2003 2138 c-5 -7 -22 -44 -38 -83 -15 -38 -29 -76 -32 -82 -9 -22
35 -15 47 7 7 14 21 20 45 20 25 0 35 -5 40 -20 6 -19 45 -29 45 -12 0 5 -15
46 -34 93 -33 82 -53 103 -73 77z m33 -106 c-3 -2 -12 -2 -21 2 -13 5 -14 10
-4 28 l12 22 9 -23 c5 -13 6 -26 4 -29z"/>
<path d="M2193 2140 c-55 -22 -66 -115 -20 -159 20 -18 34 -21 85 -19 l62 3 0
48 0 47 -45 0 c-46 0 -62 -17 -25 -27 26 -7 20 -27 -9 -31 -44 -7 -66 41 -41
89 11 20 49 26 66 9 8 -8 15 -6 23 4 10 11 8 17 -11 30 -25 18 -51 19 -85 6z"/>
<path d="M2386 2129 c-38 -30 -49 -64 -36 -105 23 -69 99 -86 151 -35 45 45
34 118 -22 147 -38 19 -62 18 -93 -7z m96 -55 c8 -18 7 -29 -6 -49 -28 -42
-86 -26 -86 25 0 56 70 74 92 24z"/>
<path d="M2600 2055 l0 -95 41 0 c112 0 138 150 31 180 -73 20 -72 21 -72 -85z
m81 34 c31 -31 13 -88 -28 -89 -9 0 -13 18 -13 55 0 59 8 67 41 34z"/>
<path d="M2780 2055 l0 -95 50 0 c43 0 50 3 50 20 0 16 -7 20 -30 20 -20 0
-30 5 -30 15 0 10 10 15 30 15 23 0 30 4 30 20 0 16 -7 20 -30 20 -23 0 -30 4
-30 20 0 16 7 20 30 20 23 0 30 4 30 20 0 17 -7 20 -50 20 l-50 0 0 -95z"/>
<path d="M2917 2143 c-4 -3 -7 -46 -7 -95 l0 -88 55 0 c48 0 55 2 55 20 0 16
-7 20 -35 20 l-35 0 0 75 c0 56 -3 75 -13 75 -8 0 -17 -3 -20 -7z"/>
<path d="M3050 2055 l0 -95 50 0 c43 0 50 3 50 20 0 16 -7 20 -30 20 -20 0
-30 5 -30 15 0 10 10 15 30 15 23 0 30 4 30 20 0 16 -7 20 -30 20 -23 0 -30 4
-30 20 0 16 7 20 30 20 23 0 30 4 30 20 0 17 -7 20 -50 20 l-50 0 0 -95z"/>
<path d="M3350 2055 l0 -95 50 0 c43 0 50 3 50 20 0 16 -7 20 -30 20 -20 0
-30 5 -30 15 0 10 10 15 30 15 23 0 30 4 30 20 0 16 -7 20 -30 20 -23 0 -30 4
-30 20 0 16 7 20 30 20 23 0 30 4 30 20 0 17 -7 20 -50 20 l-50 0 0 -95z"/>
<path d="M3550 2143 c-28 -10 -59 -45 -65 -74 -13 -57 36 -108 103 -109 35 0
42 3 42 20 0 16 -7 20 -33 20 -38 0 -67 25 -67 58 0 28 43 56 74 48 18 -4 25
-1 29 13 7 28 -38 40 -83 24z"/>
<path d="M3709 2135 c-55 -30 -62 -116 -13 -154 20 -16 40 -20 95 -19 65 0 69
2 55 17 -13 14 -14 23 -4 48 15 40 -4 88 -43 108 -35 18 -56 18 -90 0z m91
-65 c14 -25 4 -45 -15 -30 -18 15 -40 -11 -23 -28 9 -9 7 -12 -10 -12 -27 0
-53 38 -46 67 12 45 71 47 94 3z"/>
<path d="M3189 2120 c0 -11 -1 -38 -1 -60 0 -107 -3 -100 47 -100 55 0 91 29
80 63 -4 12 -7 37 -6 56 2 48 -13 61 -70 61 -42 0 -49 -3 -50 -20z m76 -30 c0
-8 -8 -16 -17 -18 -13 -2 -18 3 -18 18 0 15 5 20 18 18 9 -2 17 -10 17 -18z
m-6 -59 c17 -11 7 -41 -14 -41 -9 0 -15 9 -15 25 0 27 6 30 29 16z"/>
<path d="M1761 1738 c1 -35 4 -51 6 -35 3 19 10 27 24 27 10 0 19 5 19 10 0 6
-9 10 -20 10 -11 0 -20 7 -20 15 0 8 9 15 20 15 11 0 20 5 20 10 0 6 -11 10
-25 10 -24 0 -25 -2 -24 -62z"/>
<path d="M1830 1753 c0 -59 10 -76 41 -71 22 3 24 8 25 63 1 33 0 44 -3 25 -6
-61 -13 -80 -28 -80 -11 0 -15 12 -15 49 0 28 -4 53 -10 56 -6 4 -10 -12 -10
-42z"/>
<path d="M1920 1740 l0 -60 33 1 c23 1 26 3 10 6 -21 4 -23 10 -23 59 0 30 -4
54 -10 54 -6 0 -10 -27 -10 -60z"/>
<path d="M1992 1743 c-2 -63 -2 -63 26 -62 23 0 24 1 7 8 -15 6 -21 20 -26 62
l-6 54 -1 -62z"/>
<path d="M2097 1794 c-14 -14 -7 -43 14 -58 14 -10 19 -21 15 -32 -5 -13 -9
-15 -18 -6 -17 17 -33 15 -18 -3 16 -20 46 -19 54 1 8 22 9 20 -20 48 -29 26
-25 58 4 34 13 -11 14 -11 10 2 -5 17 -30 25 -41 14z"/>
<path d="M2160 1790 c0 -5 5 -10 10 -10 6 0 10 -22 10 -50 0 -27 5 -50 10 -50
6 0 10 23 10 50 0 28 5 50 10 50 6 0 10 5 10 10 0 6 -13 10 -30 10 -16 0 -30
-4 -30 -10z"/>
<path d="M2255 1788 c-9 -29 -25 -94 -25 -103 0 -5 5 -2 11 8 12 21 38 22 45
2 4 -8 9 -15 13 -15 4 0 1 27 -8 60 -15 58 -27 74 -36 48z m25 -55 c0 -7 -7
-13 -16 -13 -11 0 -14 5 -10 16 3 9 6 21 6 27 0 16 20 -14 20 -30z"/>
<path d="M2330 1784 c-17 -20 -17 -69 0 -89 16 -19 51 -16 58 5 5 13 3 13 -11
1 -23 -19 -47 2 -47 41 0 32 23 47 45 28 18 -15 20 1 3 18 -16 16 -33 15 -48
-4z"/>
<path d="M2413 1740 c0 -36 2 -54 4 -40 8 42 22 47 35 12 7 -18 16 -32 20 -32
11 0 10 7 -8 41 -14 28 -14 33 1 55 8 13 11 24 6 24 -5 0 -17 -12 -27 -27
l-18 -28 -7 30 c-5 21 -7 10 -6 -35z"/>
<path d="M2530 1740 c0 -56 2 -60 23 -60 33 0 47 18 47 62 0 27 -5 40 -19 48
-42 22 -51 14 -51 -50z m54 24 c11 -29 6 -53 -13 -63 -25 -14 -31 -5 -31 41 0
31 4 38 19 38 10 0 22 -7 25 -16z"/>
<path d="M2620 1740 l0 -60 33 1 c23 1 26 3 10 6 -26 5 -33 43 -8 43 8 0 15 5
15 10 0 6 -7 10 -15 10 -8 0 -15 7 -15 15 0 8 9 15 20 15 11 0 20 5 20 10 0 6
-13 10 -30 10 l-30 0 0 -60z"/>
<path d="M2690 1790 c0 -27 27 -104 37 -107 6 -2 16 16 22 41 17 69 11 88 -8
26 l-18 -55 -7 40 c-8 44 -26 82 -26 55z"/>
<path d="M2780 1740 l0 -60 33 1 c23 1 26 3 10 6 -26 5 -33 43 -8 43 8 0 15 5
15 10 0 6 -7 10 -15 10 -8 0 -15 7 -15 15 0 8 9 15 20 15 11 0 20 5 20 10 0 6
-13 10 -30 10 l-30 0 0 -60z"/>
<path d="M2862 1743 c-2 -63 -2 -63 26 -62 22 1 23 2 5 6 -19 4 -23 12 -26 61
l-3 57 -2 -62z"/>
<path d="M2935 1784 c-21 -21 -16 -83 8 -98 27 -17 51 5 55 48 5 58 -28 85
-63 50z m51 -31 c7 -27 -4 -54 -24 -61 -16 -5 -35 36 -28 64 9 34 44 32 52 -3z"/>
<path d="M3020 1740 c0 -33 4 -60 10 -60 6 0 10 11 10 25 0 18 5 25 19 25 28
0 39 40 15 57 -10 7 -26 13 -36 13 -15 0 -18 -9 -18 -60z m50 20 c0 -11 -7
-20 -15 -20 -8 0 -15 9 -15 20 0 11 7 20 15 20 8 0 15 -9 15 -20z"/>
<path d="M3107 1793 c-4 -3 -7 -30 -7 -60 l0 -53 33 1 c23 1 26 3 10 6 -26 5
-33 43 -8 43 8 0 15 5 15 10 0 6 -7 10 -15 10 -8 0 -15 7 -15 15 0 8 9 15 20
15 11 0 20 5 20 10 0 11 -43 14 -53 3z"/>
<path d="M3181 1738 c0 -35 3 -56 6 -48 2 8 7 22 10 30 3 11 8 8 19 -12 8 -16
20 -28 25 -28 7 0 4 10 -5 25 -9 14 -12 25 -6 25 17 0 12 57 -6 64 -39 15 -44
8 -43 -56z m49 22 c0 -13 -7 -20 -20 -20 -13 0 -20 7 -20 20 0 13 7 20 20 20
13 0 20 -7 20 -20z"/>
</g>
</svg>
